<svg width="992" height="1012" viewBox="0 0 992 1012" fill="none" xmlns="http://www.w3.org/2000/svg">
<g filter="url(#filter0_d_1004_10)">
<path fill-rule="evenodd" clip-rule="evenodd" d="M186.661 332.557C146.036 373.182 130.169 432.397 145.04 487.891L198.44 687.189C213.311 742.686 256.659 786.034 312.154 800.903L511.452 854.303C566.947 869.175 626.161 853.308 666.787 812.682L812.683 666.786C853.308 626.161 869.176 566.947 854.304 511.451L800.904 312.153C786.033 256.659 742.685 213.311 687.19 198.439L487.892 145.039C432.398 130.169 373.183 146.035 332.557 186.661L186.661 332.557ZM408.366 262.47L317.181 353.655C302.592 368.244 309.27 393.153 329.203 398.477C390.706 414.899 452.234 431.238 513.724 447.714C532.223 452.672 546.673 467.121 551.629 485.619C568.105 547.108 584.444 608.637 600.868 670.142C606.191 690.075 631.099 696.751 645.688 682.162L736.873 590.977C750.415 577.436 755.704 557.698 750.746 539.199L697.346 339.901C692.39 321.404 677.941 306.955 659.442 301.997L460.144 248.596C441.646 243.64 421.907 248.928 408.366 262.47Z" fill="url(#paint0_linear_1004_10)"/>
</g>
<defs>
<filter id="filter0_d_1004_10" x="32.3455" y="85.9505" width="934.653" height="934.653" filterUnits="userSpaceOnUse" color-interpolation-filters="sRGB">
<feFlood flood-opacity="0" result="BackgroundImageFix"/>
<feColorMatrix in="SourceAlpha" type="matrix" values="0 0 0 0 0 0 0 0 0 0 0 0 0 0 0 0 0 0 127 0" result="hardAlpha"/>
<feOffset dy="53.6053"/>
<feGaussianBlur stdDeviation="53.6053"/>
<feComposite in2="hardAlpha" operator="out"/>
<feColorMatrix type="matrix" values="0 0 0 0 0.141176 0 0 0 0 0.141176 0 0 0 0 0.141176 0 0 0 0.1 0"/>
<feBlend mode="normal" in2="BackgroundImageFix" result="effect1_dropShadow_1004_10"/>
<feBlend mode="normal" in="SourceGraphic" in2="effect1_dropShadow_1004_10" result="shape"/>
</filter>
<linearGradient id="paint0_linear_1004_10" x1="259.608" y1="259.61" x2="739.734" y2="739.735" gradientUnits="userSpaceOnUse">
<stop stop-color="white" stop-opacity="0.8"/>
<stop offset="1" stop-color="white" stop-opacity="0.5"/>
</linearGradient>
</defs>
</svg>
